<?xml version="1.0" encoding="UTF-8"?>
<svg xmlns="http://www.w3.org/2000/svg" xmlns:xlink="http://www.w3.org/1999/xlink" width="588" height="588" viewBox="0 0 588 588">
<defs>
<g id="source-93">
<path fill="none" stroke-width="1" stroke-linecap="butt" stroke-linejoin="miter" stroke="rgb(86.666667%, 86.666667%, 86.666667%)" stroke-opacity="1" stroke-miterlimit="10" d="M 0 0 L 0 200 L 200 200 L 200 0 Z M 0 0 "/>
<path fill="none" stroke-width="1" stroke-linecap="butt" stroke-linejoin="miter" stroke="rgb(86.666667%, 86.666667%, 86.666667%)" stroke-opacity="1" stroke-miterlimit="10" d="M 0 0 L -0.000358728 200.001919 L 200.001152 199.998393 L 200.001919 0.000358728 Z M 0 0 " transform="matrix(0.994522, 0.104528, -0.104528, 0.994522, 0, 0)"/>
<path fill="none" stroke-width="1" stroke-linecap="butt" stroke-linejoin="miter" stroke="rgb(86.666667%, 86.666667%, 86.666667%)" stroke-opacity="1" stroke-miterlimit="10" d="M 0 0 L 0.00017257 199.999336 L 199.999508 199.999163 L 199.999336 -0.00017257 Z M 0 0 " transform="matrix(0.978148, 0.207912, -0.207912, 0.978148, 0, 0)"/>
<path fill="none" stroke-width="1" stroke-linecap="butt" stroke-linejoin="miter" stroke="rgb(86.666667%, 86.666667%, 86.666667%)" stroke-opacity="1" stroke-miterlimit="10" d="M 0 0 L -0.00133858 200.00005 L 199.998712 200.001389 L 200.00005 0.00133858 Z M 0 0 " transform="matrix(0.951057, 0.309017, -0.309017, 0.951057, 0, 0)"/>
<path fill="none" stroke-width="1" stroke-linecap="butt" stroke-linejoin="miter" stroke="rgb(86.666667%, 86.666667%, 86.666667%)" stroke-opacity="1" stroke-miterlimit="10" d="M 0 0 L 0.000451515 200.00182 L 200.000682 199.9978 L 200.00182 -0.000451515 Z M 0 0 " transform="matrix(0.913545, 0.406737, -0.406737, 0.913545, 0, 0)"/>
<path fill="none" stroke-width="1" stroke-linecap="butt" stroke-linejoin="miter" stroke="rgb(86.666667%, 86.666667%, 86.666667%)" stroke-opacity="1" stroke-miterlimit="10" d="M 0 0 L 0.000975247 200.001689 L 200.002664 200.000714 L 200.001689 -0.000975247 Z M 0 0 " transform="matrix(0.866025, 0.5, -0.5, 0.866025, 0, 0)"/>
<path fill="none" stroke-width="1" stroke-linecap="butt" stroke-linejoin="miter" stroke="rgb(86.666667%, 86.666667%, 86.666667%)" stroke-opacity="1" stroke-miterlimit="10" d="M 0 0 L -0.000491114 200.00195 L 199.999162 199.999281 L 200.00195 0.000491114 Z M 0 0 " transform="matrix(0.809017, 0.587785, -0.587785, 0.809017, 0, 0)"/>
<path fill="none" stroke-width="1" stroke-linecap="butt" stroke-linejoin="miter" stroke="rgb(86.666667%, 86.666667%, 86.666667%)" stroke-opacity="1" stroke-miterlimit="10" d="M 0 0 L 0.00137447 199.998683 L 200.002671 200.000212 L 199.998683 -0.00137447 Z M 0 0 " transform="matrix(0.743145, 0.669131, -0.669131, 0.743145, 0, 0)"/>
<path fill="none" stroke-width="1" stroke-linecap="butt" stroke-linejoin="miter" stroke="rgb(86.666667%, 86.666667%, 86.666667%)" stroke-opacity="1" stroke-miterlimit="10" d="M 0 0 L -0.00137447 199.998683 L 200.000212 200.002671 L 199.998683 0.00137447 Z M 0 0 " transform="matrix(0.669131, 0.743145, -0.743145, 0.669131, 0, 0)"/>
<path fill="none" stroke-width="1" stroke-linecap="butt" stroke-linejoin="miter" stroke="rgb(86.666667%, 86.666667%, 86.666667%)" stroke-opacity="1" stroke-miterlimit="10" d="M 0 0 L 0.000491114 200.00195 L 199.999281 199.999162 L 200.00195 -0.000491114 Z M 0 0 " transform="matrix(0.587785, 0.809017, -0.809017, 0.587785, 0, 0)"/>
<path fill="none" stroke-width="1" stroke-linecap="butt" stroke-linejoin="miter" stroke="rgb(86.666667%, 86.666667%, 86.666667%)" stroke-opacity="1" stroke-miterlimit="10" d="M 0 0 L -0.000975247 200.001689 L 200.000714 200.002664 L 200.001689 0.000975247 Z M 0 0 " transform="matrix(0.5, 0.866025, -0.866025, 0.5, 0, 0)"/>
<path fill="none" stroke-width="1" stroke-linecap="butt" stroke-linejoin="miter" stroke="rgb(86.666667%, 86.666667%, 86.666667%)" stroke-opacity="1" stroke-miterlimit="10" d="M 0 0 L -0.000451515 200.00182 L 199.9978 200.000682 L 200.00182 0.000451515 Z M 0 0 " transform="matrix(0.406737, 0.913545, -0.913545, 0.406737, 0, 0)"/>
<path fill="none" stroke-width="1" stroke-linecap="butt" stroke-linejoin="miter" stroke="rgb(86.666667%, 86.666667%, 86.666667%)" stroke-opacity="1" stroke-miterlimit="10" d="M 0 0 L 0.00133858 200.00005 L 200.001389 199.998712 L 200.00005 -0.00133858 Z M 0 0 " transform="matrix(0.309017, 0.951057, -0.951057, 0.309017, 0, 0)"/>
<path fill="none" stroke-width="1" stroke-linecap="butt" stroke-linejoin="miter" stroke="rgb(86.666667%, 86.666667%, 86.666667%)" stroke-opacity="1" stroke-miterlimit="10" d="M 0 0 L -0.00017257 199.999336 L 199.999163 199.999508 L 199.999336 0.00017257 Z M 0 0 " transform="matrix(0.207912, 0.978148, -0.978148, 0.207912, 0, 0)"/>
<path fill="none" stroke-width="1" stroke-linecap="butt" stroke-linejoin="miter" stroke="rgb(86.666667%, 86.666667%, 86.666667%)" stroke-opacity="1" stroke-miterlimit="10" d="M 0 0 L 0.000358728 200.001919 L 199.998393 200.001152 L 200.001919 -0.000358728 Z M 0 0 " transform="matrix(0.104528, 0.994522, -0.994522, 0.104528, 0, 0)"/>
<path fill="none" stroke-width="1" stroke-linecap="butt" stroke-linejoin="miter" stroke="rgb(86.666667%, 86.666667%, 86.666667%)" stroke-opacity="1" stroke-miterlimit="10" d="M 0 0 L -0.000000000000012246 200 L 200 200 L 200 0.000000000000012246 Z M 0 0 " transform="matrix(0.000000000000000061, 1, -1, 0.000000000000000061, 0, 0)"/>
<path fill="none" stroke-width="1" stroke-linecap="butt" stroke-linejoin="miter" stroke="rgb(86.666667%, 86.666667%, 86.666667%)" stroke-opacity="1" stroke-miterlimit="10" d="M 0 0 L -0.000358728 200.001919 L 200.001152 199.998393 L 200.001919 0.000358728 Z M 0 0 " transform="matrix(-0.104528, 0.994522, -0.994522, -0.104528, 0, 0)"/>
<path fill="none" stroke-width="1" stroke-linecap="butt" stroke-linejoin="miter" stroke="rgb(86.666667%, 86.666667%, 86.666667%)" stroke-opacity="1" stroke-miterlimit="10" d="M 0 0 L 0.00017257 199.999336 L 199.999508 199.999163 L 199.999336 -0.00017257 Z M 0 0 " transform="matrix(-0.207912, 0.978148, -0.978148, -0.207912, 0, 0)"/>
<path fill="none" stroke-width="1" stroke-linecap="butt" stroke-linejoin="miter" stroke="rgb(86.666667%, 86.666667%, 86.666667%)" stroke-opacity="1" stroke-miterlimit="10" d="M 0 0 L -0.00133858 200.00005 L 199.998712 200.001389 L 200.00005 0.00133858 Z M 0 0 " transform="matrix(-0.309017, 0.951057, -0.951057, -0.309017, 0, 0)"/>
<path fill="none" stroke-width="1" stroke-linecap="butt" stroke-linejoin="miter" stroke="rgb(86.666667%, 86.666667%, 86.666667%)" stroke-opacity="1" stroke-miterlimit="10" d="M 0 0 L 0.000451515 200.00182 L 200.000682 199.9978 L 200.00182 -0.000451515 Z M 0 0 " transform="matrix(-0.406737, 0.913545, -0.913545, -0.406737, 0, 0)"/>
<path fill="none" stroke-width="1" stroke-linecap="butt" stroke-linejoin="miter" stroke="rgb(86.666667%, 86.666667%, 86.666667%)" stroke-opacity="1" stroke-miterlimit="10" d="M 0 0 L 0.000975247 200.001689 L 200.002664 200.000714 L 200.001689 -0.000975247 Z M 0 0 " transform="matrix(-0.5, 0.866025, -0.866025, -0.5, 0, 0)"/>
<path fill="none" stroke-width="1" stroke-linecap="butt" stroke-linejoin="miter" stroke="rgb(86.666667%, 86.666667%, 86.666667%)" stroke-opacity="1" stroke-miterlimit="10" d="M 0 0 L -0.000491114 200.00195 L 199.999162 199.999281 L 200.00195 0.000491114 Z M 0 0 " transform="matrix(-0.587785, 0.809017, -0.809017, -0.587785, 0, 0)"/>
<path fill="none" stroke-width="1" stroke-linecap="butt" stroke-linejoin="miter" stroke="rgb(86.666667%, 86.666667%, 86.666667%)" stroke-opacity="1" stroke-miterlimit="10" d="M 0 0 L 0.00137447 199.998683 L 200.002671 200.000212 L 199.998683 -0.00137447 Z M 0 0 " transform="matrix(-0.669131, 0.743145, -0.743145, -0.669131, 0, 0)"/>
<path fill="none" stroke-width="1" stroke-linecap="butt" stroke-linejoin="miter" stroke="rgb(86.666667%, 86.666667%, 86.666667%)" stroke-opacity="1" stroke-miterlimit="10" d="M 0 0 L -0.00137447 199.998683 L 200.000212 200.002671 L 199.998683 0.00137447 Z M 0 0 " transform="matrix(-0.743145, 0.669131, -0.669131, -0.743145, 0, 0)"/>
<path fill="none" stroke-width="1" stroke-linecap="butt" stroke-linejoin="miter" stroke="rgb(86.666667%, 86.666667%, 86.666667%)" stroke-opacity="1" stroke-miterlimit="10" d="M 0 0 L 0.000491114 200.00195 L 199.999281 199.999162 L 200.00195 -0.000491114 Z M 0 0 " transform="matrix(-0.809017, 0.587785, -0.587785, -0.809017, 0, 0)"/>
<path fill="none" stroke-width="1" stroke-linecap="butt" stroke-linejoin="miter" stroke="rgb(86.666667%, 86.666667%, 86.666667%)" stroke-opacity="1" stroke-miterlimit="10" d="M 0 0 L -0.000975247 200.001689 L 200.000714 200.002664 L 200.001689 0.000975247 Z M 0 0 " transform="matrix(-0.866025, 0.5, -0.5, -0.866025, 0, 0)"/>
<path fill="none" stroke-width="1" stroke-linecap="butt" stroke-linejoin="miter" stroke="rgb(86.666667%, 86.666667%, 86.666667%)" stroke-opacity="1" stroke-miterlimit="10" d="M 0 0 L -0.000451515 200.00182 L 199.9978 200.000682 L 200.00182 0.000451515 Z M 0 0 " transform="matrix(-0.913545, 0.406737, -0.406737, -0.913545, 0, 0)"/>
<path fill="none" stroke-width="1" stroke-linecap="butt" stroke-linejoin="miter" stroke="rgb(86.666667%, 86.666667%, 86.666667%)" stroke-opacity="1" stroke-miterlimit="10" d="M 0 0 L 0.00133858 200.00005 L 200.001389 199.998712 L 200.00005 -0.00133858 Z M 0 0 " transform="matrix(-0.951057, 0.309017, -0.309017, -0.951057, 0, 0)"/>
<path fill="none" stroke-width="1" stroke-linecap="butt" stroke-linejoin="miter" stroke="rgb(86.666667%, 86.666667%, 86.666667%)" stroke-opacity="1" stroke-miterlimit="10" d="M 0 0 L -0.00017257 199.999336 L 199.999163 199.999508 L 199.999336 0.00017257 Z M 0 0 " transform="matrix(-0.978148, 0.207912, -0.207912, -0.978148, 0, 0)"/>
<path fill="none" stroke-width="1" stroke-linecap="butt" stroke-linejoin="miter" stroke="rgb(86.666667%, 86.666667%, 86.666667%)" stroke-opacity="1" stroke-miterlimit="10" d="M 0 0 L 0.000358728 200.001919 L 199.998393 200.001152 L 200.001919 -0.000358728 Z M 0 0 " transform="matrix(-0.994522, 0.104528, -0.104528, -0.994522, 0, 0)"/>
<path fill="none" stroke-width="1" stroke-linecap="butt" stroke-linejoin="miter" stroke="rgb(86.666667%, 86.666667%, 86.666667%)" stroke-opacity="1" stroke-miterlimit="10" d="M 0 0 L -0.000000000000024493 200 L 200 200 L 200 0.000000000000024493 Z M 0 0 " transform="matrix(-1, 0.000000000000000122, -0.000000000000000122, -1, 0, 0)"/>
<path fill="none" stroke-width="1" stroke-linecap="butt" stroke-linejoin="miter" stroke="rgb(86.666667%, 86.666667%, 86.666667%)" stroke-opacity="1" stroke-miterlimit="10" d="M 0 0 L -0.000358728 200.001919 L 200.001152 199.998393 L 200.001919 0.000358728 Z M 0 0 " transform="matrix(-0.994522, -0.104528, 0.104528, -0.994522, 0, 0)"/>
<path fill="none" stroke-width="1" stroke-linecap="butt" stroke-linejoin="miter" stroke="rgb(86.666667%, 86.666667%, 86.666667%)" stroke-opacity="1" stroke-miterlimit="10" d="M 0 0 L 0.00017257 199.999336 L 199.999508 199.999163 L 199.999336 -0.00017257 Z M 0 0 " transform="matrix(-0.978148, -0.207912, 0.207912, -0.978148, 0, 0)"/>
<path fill="none" stroke-width="1" stroke-linecap="butt" stroke-linejoin="miter" stroke="rgb(86.666667%, 86.666667%, 86.666667%)" stroke-opacity="1" stroke-miterlimit="10" d="M 0 0 L -0.00133858 200.00005 L 199.998712 200.001389 L 200.00005 0.00133858 Z M 0 0 " transform="matrix(-0.951057, -0.309017, 0.309017, -0.951057, 0, 0)"/>
<path fill="none" stroke-width="1" stroke-linecap="butt" stroke-linejoin="miter" stroke="rgb(86.666667%, 86.666667%, 86.666667%)" stroke-opacity="1" stroke-miterlimit="10" d="M 0 0 L 0.000451515 200.00182 L 200.000682 199.9978 L 200.00182 -0.000451515 Z M 0 0 " transform="matrix(-0.913545, -0.406737, 0.406737, -0.913545, 0, 0)"/>
<path fill="none" stroke-width="1" stroke-linecap="butt" stroke-linejoin="miter" stroke="rgb(86.666667%, 86.666667%, 86.666667%)" stroke-opacity="1" stroke-miterlimit="10" d="M 0 0 L 0.000975247 200.001689 L 200.002664 200.000714 L 200.001689 -0.000975247 Z M 0 0 " transform="matrix(-0.866025, -0.5, 0.5, -0.866025, 0, 0)"/>
<path fill="none" stroke-width="1" stroke-linecap="butt" stroke-linejoin="miter" stroke="rgb(86.666667%, 86.666667%, 86.666667%)" stroke-opacity="1" stroke-miterlimit="10" d="M 0 0 L -0.000491114 200.00195 L 199.999162 199.999281 L 200.00195 0.000491114 Z M 0 0 " transform="matrix(-0.809017, -0.587785, 0.587785, -0.809017, 0, 0)"/>
<path fill="none" stroke-width="1" stroke-linecap="butt" stroke-linejoin="miter" stroke="rgb(86.666667%, 86.666667%, 86.666667%)" stroke-opacity="1" stroke-miterlimit="10" d="M 0 0 L 0.00137447 199.998683 L 200.002671 200.000212 L 199.998683 -0.00137447 Z M 0 0 " transform="matrix(-0.743145, -0.669131, 0.669131, -0.743145, 0, 0)"/>
<path fill="none" stroke-width="1" stroke-linecap="butt" stroke-linejoin="miter" stroke="rgb(86.666667%, 86.666667%, 86.666667%)" stroke-opacity="1" stroke-miterlimit="10" d="M 0 0 L -0.00137447 199.998683 L 200.000212 200.002671 L 199.998683 0.00137447 Z M 0 0 " transform="matrix(-0.669131, -0.743145, 0.743145, -0.669131, 0, 0)"/>
<path fill="none" stroke-width="1" stroke-linecap="butt" stroke-linejoin="miter" stroke="rgb(86.666667%, 86.666667%, 86.666667%)" stroke-opacity="1" stroke-miterlimit="10" d="M 0 0 L 0.000491114 200.00195 L 199.999281 199.999162 L 200.00195 -0.000491114 Z M 0 0 " transform="matrix(-0.587785, -0.809017, 0.809017, -0.587785, 0, 0)"/>
<path fill="none" stroke-width="1" stroke-linecap="butt" stroke-linejoin="miter" stroke="rgb(86.666667%, 86.666667%, 86.666667%)" stroke-opacity="1" stroke-miterlimit="10" d="M 0 0 L -0.000975247 200.001689 L 200.000714 200.002664 L 200.001689 0.000975247 Z M 0 0 " transform="matrix(-0.5, -0.866025, 0.866025, -0.5, 0, 0)"/>
<path fill="none" stroke-width="1" stroke-linecap="butt" stroke-linejoin="miter" stroke="rgb(86.666667%, 86.666667%, 86.666667%)" stroke-opacity="1" stroke-miterlimit="10" d="M 0 0 L -0.000451515 200.00182 L 199.9978 200.000682 L 200.00182 0.000451515 Z M 0 0 " transform="matrix(-0.406737, -0.913545, 0.913545, -0.406737, 0, 0)"/>
<path fill="none" stroke-width="1" stroke-linecap="butt" stroke-linejoin="miter" stroke="rgb(86.666667%, 86.666667%, 86.666667%)" stroke-opacity="1" stroke-miterlimit="10" d="M 0 0 L 0.00133858 200.00005 L 200.001389 199.998712 L 200.00005 -0.00133858 Z M 0 0 " transform="matrix(-0.309017, -0.951057, 0.951057, -0.309017, 0, 0)"/>
<path fill="none" stroke-width="1" stroke-linecap="butt" stroke-linejoin="miter" stroke="rgb(86.666667%, 86.666667%, 86.666667%)" stroke-opacity="1" stroke-miterlimit="10" d="M 0 0 L -0.00017257 199.999336 L 199.999163 199.999508 L 199.999336 0.00017257 Z M 0 0 " transform="matrix(-0.207912, -0.978148, 0.978148, -0.207912, 0, 0)"/>
<path fill="none" stroke-width="1" stroke-linecap="butt" stroke-linejoin="miter" stroke="rgb(86.666667%, 86.666667%, 86.666667%)" stroke-opacity="1" stroke-miterlimit="10" d="M 0 0 L 0.000358728 200.001919 L 199.998393 200.001152 L 200.001919 -0.000358728 Z M 0 0 " transform="matrix(-0.104528, -0.994522, 0.994522, -0.104528, 0, 0)"/>
<path fill="none" stroke-width="1" stroke-linecap="butt" stroke-linejoin="miter" stroke="rgb(86.666667%, 86.666667%, 86.666667%)" stroke-opacity="1" stroke-miterlimit="10" d="M 0 0 L -0.000000000000036739 200 L 200 200 L 200 0.000000000000036739 Z M 0 0 " transform="matrix(-0.000000000000000184, -1, 1, -0.000000000000000184, 0, 0)"/>
<path fill="none" stroke-width="1" stroke-linecap="butt" stroke-linejoin="miter" stroke="rgb(86.666667%, 86.666667%, 86.666667%)" stroke-opacity="1" stroke-miterlimit="10" d="M 0 0 L -0.000358728 200.001919 L 200.001152 199.998393 L 200.001919 0.000358728 Z M 0 0 " transform="matrix(0.104528, -0.994522, 0.994522, 0.104528, 0, 0)"/>
<path fill="none" stroke-width="1" stroke-linecap="butt" stroke-linejoin="miter" stroke="rgb(86.666667%, 86.666667%, 86.666667%)" stroke-opacity="1" stroke-miterlimit="10" d="M 0 0 L 0.00017257 199.999336 L 199.999508 199.999163 L 199.999336 -0.00017257 Z M 0 0 " transform="matrix(0.207912, -0.978148, 0.978148, 0.207912, 0, 0)"/>
<path fill="none" stroke-width="1" stroke-linecap="butt" stroke-linejoin="miter" stroke="rgb(86.666667%, 86.666667%, 86.666667%)" stroke-opacity="1" stroke-miterlimit="10" d="M 0 0 L -0.00133858 200.00005 L 199.998712 200.001389 L 200.00005 0.00133858 Z M 0 0 " transform="matrix(0.309017, -0.951057, 0.951057, 0.309017, 0, 0)"/>
<path fill="none" stroke-width="1" stroke-linecap="butt" stroke-linejoin="miter" stroke="rgb(86.666667%, 86.666667%, 86.666667%)" stroke-opacity="1" stroke-miterlimit="10" d="M 0 0 L 0.000451515 200.00182 L 200.000682 199.9978 L 200.00182 -0.000451515 Z M 0 0 " transform="matrix(0.406737, -0.913545, 0.913545, 0.406737, 0, 0)"/>
<path fill="none" stroke-width="1" stroke-linecap="butt" stroke-linejoin="miter" stroke="rgb(86.666667%, 86.666667%, 86.666667%)" stroke-opacity="1" stroke-miterlimit="10" d="M 0 0 L 0.000975247 200.001689 L 200.002664 200.000714 L 200.001689 -0.000975247 Z M 0 0 " transform="matrix(0.5, -0.866025, 0.866025, 0.5, 0, 0)"/>
<path fill="none" stroke-width="1" stroke-linecap="butt" stroke-linejoin="miter" stroke="rgb(86.666667%, 86.666667%, 86.666667%)" stroke-opacity="1" stroke-miterlimit="10" d="M 0 0 L -0.000491114 200.00195 L 199.999162 199.999281 L 200.00195 0.000491114 Z M 0 0 " transform="matrix(0.587785, -0.809017, 0.809017, 0.587785, 0, 0)"/>
<path fill="none" stroke-width="1" stroke-linecap="butt" stroke-linejoin="miter" stroke="rgb(86.666667%, 86.666667%, 86.666667%)" stroke-opacity="1" stroke-miterlimit="10" d="M 0 0 L 0.00137447 199.998683 L 200.002671 200.000212 L 199.998683 -0.00137447 Z M 0 0 " transform="matrix(0.669131, -0.743145, 0.743145, 0.669131, 0, 0)"/>
<path fill="none" stroke-width="1" stroke-linecap="butt" stroke-linejoin="miter" stroke="rgb(86.666667%, 86.666667%, 86.666667%)" stroke-opacity="1" stroke-miterlimit="10" d="M 0 0 L -0.00137447 199.998683 L 200.000212 200.002671 L 199.998683 0.00137447 Z M 0 0 " transform="matrix(0.743145, -0.669131, 0.669131, 0.743145, 0, 0)"/>
<path fill="none" stroke-width="1" stroke-linecap="butt" stroke-linejoin="miter" stroke="rgb(86.666667%, 86.666667%, 86.666667%)" stroke-opacity="1" stroke-miterlimit="10" d="M 0 0 L 0.000491114 200.00195 L 199.999281 199.999162 L 200.00195 -0.000491114 Z M 0 0 " transform="matrix(0.809017, -0.587785, 0.587785, 0.809017, 0, 0)"/>
<path fill="none" stroke-width="1" stroke-linecap="butt" stroke-linejoin="miter" stroke="rgb(86.666667%, 86.666667%, 86.666667%)" stroke-opacity="1" stroke-miterlimit="10" d="M 0 0 L -0.000975247 200.001689 L 200.000714 200.002664 L 200.001689 0.000975247 Z M 0 0 " transform="matrix(0.866025, -0.5, 0.5, 0.866025, 0, 0)"/>
<path fill="none" stroke-width="1" stroke-linecap="butt" stroke-linejoin="miter" stroke="rgb(86.666667%, 86.666667%, 86.666667%)" stroke-opacity="1" stroke-miterlimit="10" d="M 0 0 L -0.000451515 200.00182 L 199.9978 200.000682 L 200.00182 0.000451515 Z M 0 0 " transform="matrix(0.913545, -0.406737, 0.406737, 0.913545, 0, 0)"/>
<path fill="none" stroke-width="1" stroke-linecap="butt" stroke-linejoin="miter" stroke="rgb(86.666667%, 86.666667%, 86.666667%)" stroke-opacity="1" stroke-miterlimit="10" d="M 0 0 L 0.00133858 200.00005 L 200.001389 199.998712 L 200.00005 -0.00133858 Z M 0 0 " transform="matrix(0.951057, -0.309017, 0.309017, 0.951057, 0, 0)"/>
<path fill="none" stroke-width="1" stroke-linecap="butt" stroke-linejoin="miter" stroke="rgb(86.666667%, 86.666667%, 86.666667%)" stroke-opacity="1" stroke-miterlimit="10" d="M 0 0 L -0.00017257 199.999336 L 199.999163 199.999508 L 199.999336 0.00017257 Z M 0 0 " transform="matrix(0.978148, -0.207912, 0.207912, 0.978148, 0, 0)"/>
<path fill="none" stroke-width="1" stroke-linecap="butt" stroke-linejoin="miter" stroke="rgb(86.666667%, 86.666667%, 86.666667%)" stroke-opacity="1" stroke-miterlimit="10" d="M 0 0 L 0.000358728 200.001919 L 199.998393 200.001152 L 200.001919 -0.000358728 Z M 0 0 " transform="matrix(0.994522, -0.104528, 0.104528, 0.994522, 0, 0)"/>
</g>
</defs>
<use xlink:href="#source-93" transform="matrix(1, 0, 0, 1, 294, 294)"/>
</svg>
